<?xml version="1.0" encoding="UTF-8"?><svg id="Calque_1" xmlns="http://www.w3.org/2000/svg" viewBox="0 0 723.29 434.22"><defs><style>.cls-1{fill:#3079cf;}</style></defs><path class="cls-1" d="m207.06,1.75C3.47,23.69,0,220.1,0,220.1c2.82,135.53,186.35,162.35,186.35,162.35,14.12,29.18,92.24,51.76,92.24,51.76-28.24-23.06-23.53-44.71-23.53-44.71,280,10.82,332.24-168,332.24-168,56.59.47,74.35-46.59,74.35-46.59,20.8-41,61.65-30.59,61.65-30.59-64.47-79.06-127.53,16-127.53,16,1.88-111.53-92.71-89.88-92.71-89.88,30.59,9.41,22.12,50.35,22.12,50.35-11.76,77.65,34.35,90.82,34.35,90.82,0,0-12.71,26.35-54.59,27.76,0,0-51.76,3.29-66.35-64.47,0,0-26.35-195.29-231.53-173.18Z"/></svg>