<?xml version="1.0" encoding="UTF-8"?><svg id="Calque_2" xmlns="http://www.w3.org/2000/svg" viewBox="0 0 1958.56 444.13"><defs><style>.cls-1{fill:#eabd4e;}.cls-2{fill:#f4f4f4;}.cls-3{fill:#fff;}.cls-4{fill:#5e4e32;}.cls-5{fill:#ba4747;}.cls-6{fill:#4c96ed;}.cls-7{fill:#4f4229;}.cls-8{fill:#5f3a3e;}.cls-9{fill:#fdfeff;}.cls-10{fill:#e8d64f;}.cls-11{fill:#de5240;}.cls-12{fill:#def1f7;}.cls-13{fill:#6cacea;}</style></defs><g id="Dockhost_assets"><g id="Calque_12"><ellipse class="cls-6" cx="532.44" cy="77.18" rx="27.76" ry="16.3"/><rect class="cls-13" x="0" width="1958.56" height="444.13"/><path class="cls-1" d="m1127.11,285.33c0,68.06-39.25,127.41-97.45,158.8h-189.89c-58.19-31.39-97.44-90.74-97.44-158.8,0-100.81,86.13-182.54,192.39-182.54s192.39,81.73,192.39,182.54Z"/><path class="cls-8" d="m1164.66,48.35s2.23,12.12,20.2,11.06"/><path class="cls-12" d="m1202.01,60.78s-3.57-6.05-16.43-7.51c0,0-13.46-1.89-20.92-4.92,0,0,12.23,10.45,28.87,13.28"/><path class="cls-3" d="m1202.01,60.78s-6.27-5.19-8.86,1.73c0,0-4.11,10.81,29.84,16.22l2.05,3.68s6.38.32,6.59-4.22c0,0-10.38-6.59-12.97-11.68,0,0,10.05-7.24,17.62-8.54,0,0,6.59-9.84,12.22-14.81,0,0-28.22,0-39.68,18.81,0,0-5.95.54-6.81-1.19Z"/><ellipse class="cls-8" cx="1198.88" cy="63.73" rx="1.51" ry="2.11"/><path class="cls-11" d="m1194.88,64.74s-.5-5.12-10.02,0c0,0,5.32,2.88,10.02,0Z"/><path class="cls-8" d="m1231.63,78.19h0c-.43,4.29-6.59,4.22-6.59,4.22,0,0,4,2.52,5.3,5.12,0,0,4.76-1.51,6.05-7.71,0,0-3.85-.38-4.76-1.62Z"/><path class="cls-8" d="m1248.5,43.16s9.37-.97,13.48-3.21c0,0-6.7,11.53-25.69,18.02,0,0,7.96-12.11,12.22-14.81Z"/><path class="cls-8" d="m1256.78,89.9s3.12,16.92,28.19,15.44"/><path class="cls-12" d="m1308.92,107.26s-4.98-8.45-22.94-10.49c0,0-18.79-2.64-29.2-6.87,0,0,17.07,14.59,40.3,18.53"/><path class="cls-3" d="m1308.92,107.26s-8.75-7.24-12.37,2.41c0,0-5.73,15.09,41.65,22.63l2.87,5.13s8.9.45,9.2-5.88c0,0-14.49-9.2-18.11-16.3,0,0,14.03-10.11,24.6-11.92,0,0,9.2-13.73,17.05-20.67,0,0-39.38,0-55.38,26.26,0,0-8.3.75-9.51-1.66Z"/><ellipse class="cls-8" cx="1304.54" cy="111.38" rx="2.11" ry="2.94"/><path class="cls-11" d="m1298.96,112.79s-.7-7.14-13.98,0c0,0,7.43,4.02,13.98,0Z"/><path class="cls-8" d="m1350.26,131.55h0c-.6,5.99-9.2,5.88-9.2,5.88,0,0,5.58,3.52,7.39,7.14,0,0,6.64-2.11,8.45-10.76,0,0-5.38-.53-6.64-2.26Z"/><path class="cls-8" d="m1373.8,82.66s13.08-1.36,18.81-4.48c0,0-9.36,16.1-35.86,25.15,0,0,11.12-16.9,17.05-20.67Z"/><path class="cls-6" d="m1856.4,63.04s-1.05,5.65-9.47,5.16"/><path class="cls-6" d="m1838.88,68.84s1.67-2.82,7.71-3.5c0,0,6.31-.88,9.81-2.29,0,0-5.74,4.87-13.54,6.19"/><path class="cls-6" d="m1838.88,68.84s2.94-2.42,4.16.81c0,0,1.93,5.04-14,7.56l-.96,1.71s-2.99.15-3.09-1.97c0,0,4.87-3.07,6.09-5.44,0,0-4.72-3.38-8.27-3.98,0,0-3.09-4.59-5.73-6.91,0,0,13.24,0,18.61,8.77,0,0,2.79.25,3.19-.55Z"/><path class="cls-6" d="m1842.22,70.68s.24-2.39,4.7,0c0,0-2.5,1.34-4.7,0Z"/><path class="cls-6" d="m1824.98,76.95h0c.2,2,3.09,1.97,3.09,1.97,0,0-1.88,1.18-2.48,2.39,0,0-2.23-.71-2.84-3.6,0,0,1.81-.18,2.23-.76Z"/><path class="cls-6" d="m1817.07,60.62s-4.4-.45-6.32-1.5c0,0,3.14,5.38,12.05,8.4,0,0-3.74-5.65-5.73-6.91Z"/><path class="cls-2" d="m382.18,44.69c0,16.27-7.94,31.27-21.34,43.33-19.41,17.48-50.27,28.78-85.03,28.78-37.64,0-70.7-13.24-89.61-33.23-10.62-11.22-16.77-24.56-16.77-38.88,0-16.88,8.55-32.4,22.89-44.69h166.97c14.33,12.28,22.89,27.81,22.89,44.69Z"/><path class="cls-2" d="m528.74,29.7c0,35.23-53.49,63.78-119.47,63.78-17.24,0-33.63-1.95-48.43-5.46-41.85-9.92-71.04-32.3-71.04-58.32,0-10.73,4.96-20.83,13.73-29.7h211.48c8.77,8.87,13.73,18.97,13.73,29.7Z"/><ellipse class="cls-2" cx="386.89" cy="99.87" rx="97.09" ry="38.98"/><ellipse class="cls-2" cx="498.07" cy="65.99" rx="88.8" ry="47.51"/><path class="cls-2" d="m270.76,28.2c0,30.72-34.59,55.62-77.27,55.62-2.46,0-4.89-.08-7.29-.25-39.25-2.64-69.97-26.42-69.97-55.37,0-10.29,3.88-19.93,10.66-28.2h133.21c6.78,8.27,10.66,17.91,10.66,28.2Z"/><ellipse class="cls-3" cx="400.44" cy="64.59" rx="76.94" ry="35.28"/><path class="cls-3" d="m479.74,27.62c0,31.04-64.08,56.2-143.12,56.2s-143.12-25.16-143.12-56.2c0-10.04,6.71-19.47,18.46-27.62h249.32c11.75,8.15,18.46,17.58,18.46,27.62Z"/><ellipse class="cls-3" cx="523.25" cy="65.07" rx="25.19" ry="16.47"/><ellipse class="cls-3" cx="535.97" cy="76.59" rx="18.12" ry="10.6"/><ellipse class="cls-3" cx="494.09" cy="90.16" rx="12.47" ry="6.34"/><ellipse class="cls-2" cx="1617.97" cy="76.13" rx="94.59" ry="52.24"/><ellipse class="cls-2" cx="1678.68" cy="102.39" rx="55.76" ry="34.94"/><ellipse class="cls-9" cx="1632.34" cy="87.07" rx="61.16" ry="29.29"/><ellipse class="cls-9" cx="1602.09" cy="73.07" rx="47.41" ry="24.47"/><ellipse class="cls-9" cx="1699.62" cy="116.36" rx="15.53" ry="8.24"/><path class="cls-10" d="m1106.91,323.45c0,52.04-31.61,97.33-78.23,120.68h-144.24c-46.62-23.35-78.23-68.64-78.23-120.68,0-75.94,67.31-137.5,150.35-137.5s150.35,61.56,150.35,137.5Z"/><ellipse class="cls-10" cx="852.44" cy="175.88" rx="31.53" ry="24.72"/><ellipse class="cls-10" cx="820.68" cy="194.48" rx="18.59" ry="13.65"/><ellipse class="cls-10" cx="843.5" cy="210.71" rx="7.53" ry="5.65"/><path class="cls-4" d="m1596.33,306.2c-2.46,33.65-33.37,62.22-73.6,65.98-40.23,3.75-75.89-18.61-84.53-51.23l75.23-7.02,6.61-.61,76.29-7.12Z"/><polygon class="cls-7" points="1520.04 313.32 1513.43 313.93 1499.12 204.41 1505.69 203.55 1520.04 313.32"/><polygon class="cls-5" points="1505.69 203.55 1515.27 277.18 1586.56 270.95 1505.69 203.55"/><polygon class="cls-3" points="1515.62 222.77 1521.61 268.85 1566.23 264.95 1515.62 222.77"/><ellipse class="cls-2" cx="1507.56" cy="146.6" rx="43.61" ry="23.19"/><ellipse class="cls-2" cx="1479.57" cy="158.26" rx="25.71" ry="15.51"/><ellipse class="cls-9" cx="1500.93" cy="151.45" rx="28.2" ry="13.01"/><ellipse class="cls-9" cx="1514.88" cy="145.24" rx="21.86" ry="10.86"/><ellipse class="cls-9" cx="1469.91" cy="164.46" rx="7.16" ry="3.66"/><g><path class="cls-3" d="m181.71,225.49c0,12.44-4,23.23-12,32.37-7.07,8.17-16.99,12.46-29.77,12.89-2.45.08-9.2.13-20.25.13-2.07,0-5.2-.06-9.36-.19-4.17-.13-7.29-.19-9.36-.19-1.23,0-1.84-.49-1.84-1.46,0-4.65.18-11.65.54-20.98.36-9.33.54-16.32.54-20.98s-.18-12.16-.54-21.87c-.36-9.71-.54-16.98-.54-21.8,0-.89.61-1.42,1.84-1.59,3-.34,7.93-.51,14.79-.51,13.03,0,21.48.19,25.33.57,10.03,1.02,17.88,3.55,23.55,7.62,5.33,3.81,9.54,9.14,12.63,16,2.96,6.47,4.44,13.14,4.44,20Zm-24.31,0c0-7.15-2.14-12.99-6.41-17.52-4.32-4.7-10.03-7.05-17.14-7.05-6.52,0-9.78.87-9.78,2.6,0,2.5-.04,6.25-.13,11.27-.09,5.01-.13,8.77-.13,11.27s.04,6.15.13,11.08c.08,4.93.13,8.64.13,11.14,0,1.82,3.39,2.73,10.16,2.73,7.32,0,13.08-2.43,17.27-7.3,3.94-4.61,5.9-10.69,5.9-18.22Z"/><path class="cls-3" d="m252.17,239.26c0,9.65-2.95,17.48-8.85,23.49-5.9,6.01-13.66,9.01-23.26,9.01s-16.97-2.96-22.98-8.89c-6.01-5.92-9.01-13.54-9.01-22.85,0-9.82,2.88-17.78,8.63-23.9,5.75-6.11,13.54-9.17,23.36-9.17s17.31,2.99,23.23,8.98c5.92,5.99,8.89,13.76,8.89,23.33Zm-20.82,0c0-3.34-1.04-6.29-3.11-8.85-2.07-2.56-4.76-3.84-8.06-3.84s-6.09,1.31-8.25,3.94c-2.03,2.45-3.05,5.37-3.05,8.76s1.02,6.37,3.05,8.82c2.16,2.62,4.91,3.94,8.25,3.94s6.03-1.31,8.19-3.94c1.99-2.45,2.98-5.4,2.98-8.82Z"/><path class="cls-3" d="m301.87,228.73s-1.32-.34-3.84-1.02c-2.52-.68-4.56-1.02-6.13-1.02-3.77,0-6.77,1.13-9.01,3.4-2.24,2.26-3.36,5.28-3.36,9.05s1.23,6.95,3.68,9.17c2.45,2.22,5.65,3.33,9.58,3.33,1.86,0,3.96-.48,6.28-1.43,2.33-.95,3.43-1.43,3.3-1.43.72,0,1.65,2.69,2.79,8.06.97,4.91,1.46,8.17,1.46,9.78s-2.62,2.98-7.87,4.13c-4.06.89-7.34,1.33-9.84,1.33-9.31,0-16.99-3.13-23.04-9.39-6.05-6.26-9.08-14.07-9.08-23.42s3.04-17.06,9.11-23.39c6.07-6.33,13.74-9.49,23.01-9.49,6.31,0,11.85,1.35,16.63,4.06,1.1.59,1.65,1.16,1.65,1.71s-.63,3.05-1.9,7.49c-1.19,4.27-1.96,6.86-2.32,7.74-.36.89-.73,1.33-1.11,1.33Z"/><path class="cls-3" d="m384.46,229.04c0,9.35-4.59,16.46-13.77,21.33-.85.42-1.27.87-1.27,1.33,0,.72,1.97,3.71,5.9,8.98s5.9,8.03,5.9,8.28c0,1.14-5.61,1.71-16.82,1.71-4.32,0-6.81-.55-7.49-1.65-1.69-2.83-4.34-6.9-7.93-12.19-.21-.25-4.02-.55-11.43-.89,0,1.31.02,3.41.06,6.28.04,2.88.06,5.01.06,6.41,0,1.27-.61,1.97-1.84,2.09-.76.08-4.1.13-10.03.13-5.12,0-8.1-.09-8.95-.25-1.14-.21-1.71-1.08-1.71-2.6v-38.85c0-5.21-.19-12.99-.57-23.36-.38-10.37-.57-18.13-.57-23.3,0-1.02.57-1.54,1.71-1.59,2.24,0,5.61-.04,10.09-.13,1.18-.08,3.24-.34,6.16-.76,2.58-.38,4.61-.57,6.09-.57.68,0,1.02.61,1.02,1.84,0,1.61-.13,3.79-.38,6.54-.3,3.22-.47,5.42-.51,6.6-.38,9.1-.57,16.15-.57,21.14,0,1.19.15,1.8.44,1.84.38-.25.89-.72,1.52-1.4,5.5-5.71,12.19-8.57,20.06-8.57,7.4,0,13.29,1.69,17.65,5.08,4.78,3.77,7.17,9.27,7.17,16.5Zm-25.2,4.13c0-5.12-2.9-7.68-8.7-7.68-2.58,0-5.33.97-8.25,2.92-3.13,2.07-4.7,4.34-4.7,6.79,0,3.51.49,5.63,1.46,6.35.76.51,3.19.76,7.3.76,8.59,0,12.89-3.05,12.89-9.14Z"/><path class="cls-3" d="m455.42,224.47l-.13,43.8c0,1.48-.59,2.31-1.78,2.48-1.35.17-4.44.25-9.27.25s-7.89-.17-9.71-.51c-1.4-.25-2.09-1.16-2.09-2.73,0-3.64.06-9.12.19-16.44.13-7.32.19-12.8.19-16.44,0-4.95-2.52-7.43-7.55-7.43-1.69,0-3.68.68-5.97,2.03-2.5,1.48-3.75,3.03-3.75,4.63v15.68c0,2.03.04,5.09.13,9.17.08,4.08.13,7.14.13,9.17,0,1.57-.66,2.43-1.97,2.6-1.31.17-4.99.25-11.04.25-3.47,0-5.97-.17-7.49-.51s-2.29-1.08-2.29-2.22c0-3.34.02-8.37.06-15.08.04-6.71.06-11.73.06-15.08,0-13.84-.15-25.28-.44-34.34-.13-3.17-.23-6.35-.32-9.52-.21-3.68-.59-6.83-1.14-9.46-.13-.55-.19-.95-.19-1.21,0-.63.32-1.06.95-1.27,1.31-.38,3.24-.61,5.78-.7,3.39-.13,5.35-.23,5.9-.32l11.49-1.33c.68,0,1.02.44,1.02,1.33,0,1.35-.09,3.2-.25,5.52-.17,2.71-.25,4.55-.25,5.52-.25,9.56-.38,17.12-.38,22.66,0,.85.21,1.27.63,1.27.08,0,1.16-.74,3.24-2.22,2.45-1.73,4.8-3.11,7.05-4.13,3.34-1.48,6.58-2.22,9.71-2.22,5.42,0,9.94,1.42,13.58,4.25,3.94,3.05,5.9,7.22,5.9,12.5Z"/><path class="cls-3" d="m526.83,239.26c0,9.65-2.95,17.48-8.85,23.49-5.9,6.01-13.66,9.01-23.26,9.01s-16.97-2.96-22.98-8.89c-6.01-5.92-9.01-13.54-9.01-22.85,0-9.82,2.88-17.78,8.63-23.9,5.75-6.11,13.54-9.17,23.36-9.17s17.31,2.99,23.23,8.98c5.92,5.99,8.89,13.76,8.89,23.33Zm-20.82,0c0-3.34-1.04-6.29-3.11-8.85-2.07-2.56-4.76-3.84-8.06-3.84s-6.09,1.31-8.25,3.94c-2.03,2.45-3.05,5.37-3.05,8.76s1.02,6.37,3.05,8.82c2.16,2.62,4.91,3.94,8.25,3.94s6.03-1.31,8.19-3.94c1.99-2.45,2.98-5.4,2.98-8.82Z"/><path class="cls-3" d="m571.65,219.14c0,.42-.32.99-.95,1.71-1.19-.3-2.37-.44-3.55-.44-2.5,0-4.59.55-6.28,1.65-2.03,1.27-3.05,3.07-3.05,5.4,0,1.48,1.08,3.36,3.24,5.65,3.26,3.43,5.27,5.73,6.03,6.92,2.16,3.22,3.24,6.67,3.24,10.35,0,2.16-.42,4.44-1.27,6.86-.97,2.67-2.2,4.61-3.68,5.84-3.13,2.71-6.79,4.99-10.98,6.86-4.53,1.95-8.7,2.92-12.5,2.92-.85,0-2.74-2.3-5.68-6.89-2.94-4.59-4.41-7.4-4.41-8.41,0-.38.23-.61.7-.7,2.96-.55,5.94-1.1,8.95-1.65,3.72-1.18,5.59-3.13,5.59-5.84,0-1.86-1.08-4.02-3.24-6.47-3.85-4.27-5.86-6.54-6.03-6.79-2.16-3.05-3.24-6.26-3.24-9.65,0-6.35,3.22-11.74,9.65-16.19,5.75-3.94,11.91-5.9,18.47-5.9.68,0,2.35,2.28,5.01,6.82,2.67,4.55,4,7.2,4,7.97Z"/><path class="cls-3" d="m623.26,251.9c0,1.27-.16,3.2-.48,5.78-.32,2.58-.48,4.48-.48,5.68s-.13,1.98-.38,2.32c-.25.34-.95.83-2.09,1.46-5.46,3.01-11.51,4.51-18.15,4.51-12.23,0-18.34-4.68-18.34-14.03,0-2.79.11-6.99.32-12.6.21-5.61.32-9.81.32-12.6,0-1.86-1.08-2.79-3.24-2.79h-.83c-.38.04-.66.06-.83.06-1.61,0-2.41-.57-2.41-1.71,0-.68.05-1.71.16-3.11s.16-2.43.16-3.11c0-.89-.05-2.24-.16-4.06-.11-1.82-.16-3.17-.16-4.06s1.35-1.31,4.06-1.4c1.52-.04,2.35-.47,2.48-1.27.25-1.61.34-4.15.25-7.62-.17-5.46-.25-8.06-.25-7.81,0-4.91.46-7.36,1.4-7.36,1.14,0,2.77.25,4.89.76,2.41.55,4.08.87,5.01.95,2.16.3,5.42.7,9.78,1.21,1.06.09,1.59.44,1.59,1.08,0,1.69-.14,4.25-.41,7.68-.28,3.43-.41,6.01-.41,7.74,0,2.07.61,3.11,1.84,3.11,1.48,0,3.72-.06,6.73-.19,3-.13,5.27-.19,6.79-.19.93,0,1.4.32,1.4.95,0,.97-.11,2.43-.32,4.38-.21,1.95-.32,3.41-.32,4.38s.02,2.5.06,4.44c.04,1.95.06,3.43.06,4.44,0,.89-.61,1.33-1.84,1.33-.85,0-2.26-.03-4.25-.1-1.99-.06-3.41-.1-4.25-.1h-4.76c-.63,0-.95.93-.95,2.79v4.51c.04,2.03.06,3.53.06,4.51,0,3.55.4,6.01,1.21,7.36,1.14,1.82,3.38,2.73,6.73,2.73,1.06,0,2.57-.24,4.54-.73,1.97-.49,3.35-.73,4.16-.73.89,0,1.33.47,1.33,1.4Z"/></g></g></g></svg>