<?xml version="1.0" encoding="UTF-8"?><svg id="Calque_2" xmlns="http://www.w3.org/2000/svg" viewBox="0 0 498.35 444.13"><defs><style>.cls-1{fill:#eabd4e;}.cls-2{fill:#f4f4f4;}.cls-3{fill:#fff;}.cls-4{fill:#5f3a3e;}.cls-5{fill:#fdfeff;}.cls-6{fill:#e8d64f;}.cls-7{fill:#de5240;}.cls-8{fill:#def1f7;}.cls-9{fill:#6cacea;}</style></defs><g id="Dockhost_assets"><g id="Calque_12"><rect class="cls-9" width="498.35" height="444.13"/><path class="cls-1" d="m437.78,285.33c0,68.06-39.25,127.41-97.45,158.8h-189.89c-58.19-31.39-97.44-90.74-97.44-158.8,0-100.81,86.13-182.54,192.39-182.54s192.39,81.73,192.39,182.54Z"/><ellipse class="cls-2" cx="422.58" cy="49.2" rx="57.66" ry="31.84"/><ellipse class="cls-2" cx="385.58" cy="65.21" rx="33.99" ry="21.3"/><ellipse class="cls-5" cx="413.82" cy="55.87" rx="37.28" ry="17.86"/><ellipse class="cls-5" cx="432.26" cy="47.34" rx="28.9" ry="14.92"/><ellipse class="cls-5" cx="372.81" cy="73.73" rx="9.47" ry="5.02"/><path class="cls-6" d="m417.58,323.45c0,52.04-31.61,97.33-78.23,120.68h-144.24c-46.62-23.35-78.23-68.64-78.23-120.68,0-75.94,67.31-137.5,150.35-137.5s150.35,61.56,150.35,137.5Z"/><ellipse class="cls-6" cx="163.11" cy="175.88" rx="31.53" ry="24.72"/><ellipse class="cls-6" cx="131.35" cy="194.48" rx="18.59" ry="13.65"/><ellipse class="cls-6" cx="154.17" cy="210.71" rx="7.53" ry="5.65"/><g><path class="cls-3" d="m125.86,293.5c0,8.38-2.69,15.65-8.08,21.81-4.76,5.5-11.45,8.4-20.06,8.68-1.65.06-6.2.09-13.64.09-1.4,0-3.5-.04-6.31-.13-2.81-.09-4.91-.13-6.31-.13-.83,0-1.24-.33-1.24-.98,0-3.14.12-7.85.36-14.13.24-6.29.36-11,.36-14.14s-.12-8.19-.36-14.73c-.24-6.54-.36-11.44-.36-14.69,0-.6.41-.95,1.24-1.07,2.02-.23,5.35-.34,9.97-.34,8.78,0,14.47.13,17.06.38,6.76.68,12.05,2.4,15.87,5.13,3.59,2.57,6.43,6.16,8.51,10.78,2,4.36,2.99,8.85,2.99,13.47Zm-16.38,0c0-4.82-1.44-8.75-4.32-11.8-2.91-3.17-6.76-4.75-11.55-4.75-4.39,0-6.59.58-6.59,1.75,0,1.68-.03,4.21-.09,7.59-.06,3.38-.09,5.91-.09,7.59s.03,4.14.09,7.46c.06,3.32.09,5.82.09,7.51,0,1.23,2.28,1.84,6.84,1.84,4.93,0,8.81-1.64,11.63-4.92,2.65-3.11,3.98-7.2,3.98-12.27Z"/><path class="cls-3" d="m173.34,302.78c0,6.5-1.99,11.78-5.97,15.82-3.98,4.05-9.2,6.07-15.67,6.07s-11.43-2-15.48-5.99c-4.05-3.99-6.07-9.12-6.07-15.4,0-6.61,1.94-11.98,5.82-16.1,3.88-4.12,9.12-6.18,15.74-6.18s11.66,2.02,15.65,6.05c3.99,4.03,5.99,9.27,5.99,15.72Zm-14.03,0c0-2.25-.7-4.24-2.1-5.97-1.4-1.72-3.21-2.59-5.43-2.59s-4.11.88-5.56,2.65c-1.37,1.65-2.05,3.62-2.05,5.9s.68,4.29,2.05,5.94c1.45,1.77,3.31,2.65,5.56,2.65s4.06-.88,5.52-2.65c1.34-1.65,2.01-3.64,2.01-5.94Z"/><path class="cls-3" d="m206.83,295.68s-.89-.23-2.59-.68c-1.7-.46-3.07-.68-4.13-.68-2.54,0-4.56.76-6.07,2.29-1.51,1.53-2.27,3.56-2.27,6.09s.83,4.68,2.48,6.18c1.65,1.5,3.81,2.25,6.46,2.25,1.25,0,2.67-.32,4.23-.96,1.57-.64,2.31-.96,2.22-.96.48,0,1.11,1.81,1.88,5.43.66,3.31.98,5.5.98,6.59s-1.77,2.01-5.3,2.78c-2.74.6-4.95.9-6.63.9-6.27,0-11.45-2.11-15.53-6.33-4.08-4.22-6.12-9.48-6.12-15.78s2.05-11.5,6.14-15.76c4.09-4.26,9.26-6.39,15.5-6.39,4.25,0,7.98.91,11.21,2.74.74.4,1.11.78,1.11,1.15s-.43,2.05-1.28,5.05c-.8,2.88-1.32,4.62-1.56,5.22-.24.6-.49.9-.75.9Z"/><path class="cls-3" d="m262.47,295.89c0,6.3-3.09,11.09-9.28,14.37-.57.29-.86.58-.86.9,0,.49,1.33,2.5,3.98,6.05s3.98,5.41,3.98,5.58c0,.77-3.78,1.15-11.33,1.15-2.91,0-4.59-.37-5.05-1.11-1.14-1.91-2.92-4.65-5.35-8.21-.14-.17-2.71-.37-7.7-.6,0,.88.01,2.3.04,4.23.03,1.94.04,3.38.04,4.32,0,.86-.41,1.33-1.24,1.41-.51.06-2.77.09-6.76.09-3.45,0-5.46-.06-6.03-.17-.77-.14-1.15-.73-1.15-1.75v-26.17c0-3.51-.13-8.75-.38-15.74-.26-6.99-.38-12.22-.38-15.7,0-.68.38-1.04,1.15-1.07,1.51,0,3.78-.03,6.8-.09.8-.06,2.18-.23,4.15-.51,1.74-.26,3.11-.38,4.11-.38.46,0,.68.41.68,1.24,0,1.08-.09,2.55-.26,4.41-.2,2.17-.31,3.65-.34,4.45-.26,6.13-.38,10.88-.38,14.24,0,.8.1,1.21.3,1.24.26-.17.6-.48,1.03-.94,3.71-3.85,8.21-5.77,13.52-5.77,4.99,0,8.95,1.14,11.89,3.42,3.22,2.54,4.83,6.24,4.83,11.12Zm-16.98,2.78c0-3.45-1.95-5.18-5.86-5.18-1.74,0-3.59.66-5.56,1.97-2.11,1.4-3.16,2.92-3.16,4.58,0,2.37.33,3.79.98,4.28.51.34,2.15.51,4.92.51,5.79,0,8.68-2.05,8.68-6.16Z"/><path class="cls-3" d="m310.28,292.81l-.09,29.51c0,1-.4,1.55-1.2,1.67-.91.11-2.99.17-6.24.17s-5.32-.11-6.54-.34c-.94-.17-1.41-.78-1.41-1.84,0-2.45.04-6.14.13-11.08.09-4.93.13-8.62.13-11.08,0-3.34-1.7-5-5.09-5-1.14,0-2.48.46-4.02,1.37-1.68,1-2.52,2.04-2.52,3.12v10.56c0,1.37.03,3.43.09,6.18.06,2.75.09,4.81.09,6.18,0,1.06-.44,1.64-1.33,1.75-.88.11-3.36.17-7.44.17-2.34,0-4.02-.11-5.05-.34-1.03-.23-1.54-.73-1.54-1.5,0-2.25.01-5.64.04-10.16.03-4.52.04-7.9.04-10.16,0-9.32-.1-17.04-.3-23.14-.09-2.14-.16-4.28-.21-6.42-.14-2.48-.4-4.6-.77-6.37-.09-.37-.13-.64-.13-.81,0-.43.21-.71.64-.86.88-.26,2.18-.41,3.89-.47,2.28-.09,3.61-.16,3.98-.21l7.74-.9c.46,0,.68.3.68.9,0,.91-.06,2.15-.17,3.72-.11,1.83-.17,3.07-.17,3.72-.17,6.44-.26,11.53-.26,15.27,0,.57.14.85.43.85.06,0,.78-.5,2.18-1.5,1.65-1.17,3.24-2.1,4.75-2.78,2.25-1,4.43-1.5,6.54-1.5,3.65,0,6.7.96,9.15,2.87,2.65,2.05,3.98,4.86,3.98,8.43Z"/><path class="cls-3" d="m358.4,302.78c0,6.5-1.99,11.78-5.97,15.82-3.98,4.05-9.2,6.07-15.67,6.07s-11.43-2-15.48-5.99c-4.05-3.99-6.07-9.12-6.07-15.4,0-6.61,1.94-11.98,5.82-16.1,3.88-4.12,9.12-6.18,15.74-6.18s11.66,2.02,15.65,6.05c3.99,4.03,5.99,9.27,5.99,15.72Zm-14.03,0c0-2.25-.7-4.24-2.1-5.97-1.4-1.72-3.21-2.59-5.43-2.59s-4.11.88-5.56,2.65c-1.37,1.65-2.05,3.62-2.05,5.9s.68,4.29,2.05,5.94c1.45,1.77,3.31,2.65,5.56,2.65s4.06-.88,5.52-2.65c1.34-1.65,2.01-3.64,2.01-5.94Z"/><path class="cls-3" d="m388.59,289.22c0,.29-.21.67-.64,1.15-.8-.2-1.6-.3-2.4-.3-1.68,0-3.09.37-4.23,1.11-1.37.86-2.05,2.07-2.05,3.64,0,1,.73,2.27,2.18,3.81,2.2,2.31,3.55,3.86,4.06,4.66,1.45,2.17,2.18,4.49,2.18,6.97,0,1.45-.29,2.99-.86,4.62-.66,1.8-1.48,3.11-2.48,3.94-2.11,1.83-4.58,3.36-7.4,4.62-3.05,1.31-5.86,1.97-8.43,1.97-.57,0-1.85-1.55-3.83-4.64-1.98-3.09-2.97-4.98-2.97-5.67,0-.26.16-.41.47-.47,2-.37,4.01-.74,6.03-1.11,2.51-.8,3.76-2.11,3.76-3.94,0-1.25-.73-2.71-2.18-4.36-2.59-2.88-3.95-4.41-4.06-4.58-1.45-2.05-2.18-4.22-2.18-6.5,0-4.28,2.17-7.91,6.5-10.91,3.88-2.65,8.03-3.98,12.45-3.98.46,0,1.58,1.53,3.38,4.6,1.8,3.07,2.69,4.85,2.69,5.37Z"/><path class="cls-3" d="m423.36,311.29c0,.86-.11,2.15-.32,3.89-.21,1.74-.32,3.02-.32,3.83s-.09,1.33-.26,1.56c-.17.23-.64.56-1.41.98-3.68,2.02-7.76,3.04-12.23,3.04-8.24,0-12.36-3.15-12.36-9.45,0-1.88.07-4.71.21-8.49.14-3.78.21-6.61.21-8.49,0-1.25-.73-1.88-2.18-1.88h-.56c-.26.03-.44.04-.56.04-1.08,0-1.63-.38-1.63-1.15,0-.46.04-1.15.11-2.1.07-.94.11-1.64.11-2.1,0-.6-.04-1.51-.11-2.74-.07-1.23-.11-2.14-.11-2.74s.91-.88,2.74-.94c1.03-.03,1.58-.31,1.67-.86.17-1.08.23-2.79.17-5.13-.11-3.68-.17-5.43-.17-5.26,0-3.31.31-4.96.94-4.96.77,0,1.87.17,3.29.51,1.63.37,2.75.58,3.38.64,1.45.2,3.65.47,6.59.81.71.06,1.07.3,1.07.73,0,1.14-.09,2.87-.28,5.17-.19,2.31-.28,4.05-.28,5.22,0,1.4.41,2.1,1.24,2.1,1,0,2.51-.04,4.53-.13,2.02-.09,3.55-.13,4.58-.13.63,0,.94.21.94.64,0,.66-.07,1.64-.21,2.95-.14,1.31-.21,2.3-.21,2.95s.01,1.68.04,2.99c.03,1.31.04,2.31.04,2.99,0,.6-.41.9-1.24.9-.57,0-1.53-.02-2.87-.06-1.34-.04-2.3-.06-2.87-.06h-3.21c-.43,0-.64.63-.64,1.88v3.04c.03,1.37.04,2.38.04,3.04,0,2.4.27,4.05.81,4.96.77,1.23,2.28,1.84,4.53,1.84.71,0,1.73-.16,3.06-.49,1.33-.33,2.26-.49,2.8-.49.6,0,.9.31.9.94Z"/></g><path class="cls-4" d="m128.5,57.74s-2.23,12.12-20.2,11.06"/><path class="cls-8" d="m91.15,70.17s3.57-6.05,16.43-7.51c0,0,13.46-1.89,20.92-4.92,0,0-12.23,10.45-28.87,13.28"/><path class="cls-3" d="m91.15,70.17s6.27-5.19,8.86,1.73c0,0,4.11,10.81-29.84,16.22l-2.05,3.68s-6.38.32-6.59-4.22c0,0,10.38-6.59,12.97-11.68,0,0-10.05-7.24-17.62-8.54,0,0-6.59-9.84-12.22-14.81,0,0,28.22,0,39.68,18.81,0,0,5.95.54,6.81-1.19Z"/><ellipse class="cls-4" cx="94.28" cy="73.12" rx="1.51" ry="2.11"/><path class="cls-7" d="m98.28,74.13s.5-5.12,10.02,0c0,0-5.32,2.88-10.02,0Z"/><path class="cls-4" d="m61.53,87.57h0c.43,4.29,6.59,4.22,6.59,4.22,0,0-4,2.52-5.3,5.12,0,0-4.76-1.51-6.05-7.71,0,0,3.85-.38,4.76-1.62Z"/><path class="cls-4" d="m44.66,52.55s-9.37-.97-13.48-3.21c0,0,6.7,11.53,25.69,18.02,0,0-7.96-12.11-12.22-14.81Z"/></g></g></svg>