<?xml version="1.0" encoding="UTF-8"?><svg id="Calque_2" xmlns="http://www.w3.org/2000/svg" viewBox="0 0 368.47 444.13"><defs><style>.cls-1{fill:#eabd4e;}.cls-2{fill:#fff;}.cls-3{fill:#5f3a3e;}.cls-4{fill:#e8d64f;}.cls-5{fill:#de5240;}.cls-6{fill:#def1f7;}.cls-7{fill:#6cacea;}</style></defs><g id="Dockhost_assets"><g id="Calque_12"><rect class="cls-7" x="0" width="368.47" height="444.13"/><path class="cls-1" d="m342.99,312.58c0,56.38-32.52,105.55-80.73,131.55H104.95c-48.21-26-80.72-75.17-80.72-131.55,0-83.51,71.35-151.22,159.38-151.22s159.38,67.71,159.38,151.22Z"/><path class="cls-4" d="m326.25,344.16c0,43.11-26.19,80.63-64.81,99.97h-119.49c-38.62-19.34-64.81-56.86-64.81-99.97,0-62.91,55.76-113.91,124.55-113.91s124.55,51,124.55,113.91Z"/><ellipse class="cls-4" cx="115.45" cy="221.9" rx="26.12" ry="20.48"/><ellipse class="cls-4" cx="89.14" cy="237.32" rx="15.4" ry="11.31"/><ellipse class="cls-4" cx="108.04" cy="250.76" rx="6.24" ry="4.68"/><g><path class="cls-2" d="m87.73,308.89c0,6.85-2.2,12.79-6.61,17.83-3.89,4.5-9.36,6.86-16.39,7.1-1.35.05-5.07.07-11.15.07-1.14,0-2.86-.04-5.16-.1-2.3-.07-4.01-.1-5.16-.1-.68,0-1.01-.27-1.01-.8,0-2.56.1-6.41.3-11.55.2-5.14.3-8.99.3-11.55s-.1-6.69-.3-12.04c-.2-5.35-.3-9.35-.3-12.01,0-.49.34-.78,1.01-.87,1.65-.19,4.37-.28,8.14-.28,7.18,0,11.83.1,13.95.31,5.52.56,9.84,1.96,12.97,4.19,2.94,2.1,5.25,5.03,6.96,8.81,1.63,3.56,2.45,7.24,2.45,11.01Zm-13.39,0c0-3.94-1.18-7.15-3.53-9.65-2.38-2.59-5.52-3.88-9.44-3.88-3.59,0-5.38.48-5.38,1.43,0,1.38-.02,3.44-.07,6.2-.05,2.76-.07,4.83-.07,6.2s.02,3.39.07,6.1c.05,2.72.07,4.76.07,6.13,0,1,1.86,1.5,5.59,1.5,4.03,0,7.2-1.34,9.51-4.02,2.17-2.54,3.25-5.88,3.25-10.03Z"/><path class="cls-2" d="m126.53,316.47c0,5.31-1.63,9.62-4.88,12.93-3.25,3.31-7.52,4.96-12.81,4.96s-9.34-1.63-12.65-4.89c-3.31-3.26-4.96-7.46-4.96-12.58,0-5.41,1.58-9.79,4.75-13.16,3.17-3.37,7.46-5.05,12.86-5.05s9.53,1.65,12.79,4.95c3.26,3.3,4.89,7.58,4.89,12.85Zm-11.46,0c0-1.84-.57-3.47-1.71-4.88-1.14-1.41-2.62-2.11-4.44-2.11s-3.36.72-4.54,2.17c-1.12,1.35-1.68,2.96-1.68,4.82s.56,3.51,1.68,4.86c1.19,1.44,2.7,2.17,4.54,2.17s3.32-.72,4.51-2.17c1.1-1.35,1.64-2.97,1.64-4.86Z"/><path class="cls-2" d="m153.9,310.67s-.73-.19-2.11-.56c-1.39-.37-2.51-.56-3.37-.56-2.07,0-3.73.62-4.96,1.87-1.24,1.25-1.85,2.91-1.85,4.98s.68,3.83,2.03,5.05c1.35,1.22,3.11,1.83,5.28,1.83,1.03,0,2.18-.26,3.46-.79,1.28-.52,1.89-.79,1.82-.79.4,0,.91,1.48,1.54,4.44.54,2.7.8,4.5.8,5.38s-1.45,1.64-4.33,2.27c-2.24.49-4.04.73-5.42.73-5.13,0-9.36-1.72-12.69-5.17-3.33-3.45-5-7.75-5-12.9s1.67-9.4,5.02-12.88c3.34-3.48,7.57-5.23,12.67-5.23,3.47,0,6.52.75,9.16,2.24.61.33.91.64.91.94s-.35,1.68-1.05,4.12c-.65,2.35-1.08,3.77-1.28,4.26-.2.49-.4.73-.61.73Z"/><path class="cls-2" d="m199.37,310.85c0,5.15-2.53,9.06-7.58,11.74-.47.23-.7.48-.7.73,0,.4,1.08,2.04,3.25,4.95,2.17,2.9,3.25,4.42,3.25,4.56,0,.63-3.09.94-9.26.94-2.38,0-3.75-.3-4.12-.91-.93-1.56-2.39-3.8-4.37-6.71-.12-.14-2.21-.3-6.29-.49,0,.72.01,1.88.03,3.46.02,1.58.03,2.76.03,3.53,0,.7-.34,1.08-1.01,1.15-.42.05-2.26.07-5.52.07-2.82,0-4.46-.05-4.93-.14-.63-.12-.94-.59-.94-1.43v-21.39c0-2.87-.1-7.15-.31-12.86s-.31-9.98-.31-12.83c0-.56.31-.85.94-.87,1.23,0,3.09-.02,5.56-.07.65-.05,1.78-.19,3.39-.42,1.42-.21,2.54-.31,3.36-.31.37,0,.56.34.56,1.01,0,.89-.07,2.09-.21,3.6-.16,1.77-.26,2.98-.28,3.64-.21,5.01-.31,8.89-.31,11.64,0,.65.08.99.24,1.01.21-.14.49-.4.84-.77,3.03-3.15,6.71-4.72,11.05-4.72,4.08,0,7.32.93,9.72,2.8,2.63,2.07,3.95,5.1,3.95,9.09Zm-13.88,2.27c0-2.82-1.6-4.23-4.79-4.23-1.42,0-2.94.54-4.54,1.61-1.72,1.14-2.59,2.39-2.59,3.74,0,1.93.27,3.1.8,3.5.42.28,1.76.42,4.02.42,4.73,0,7.1-1.68,7.1-5.03Z"/><path class="cls-2" d="m238.45,308.33l-.07,24.12c0,.82-.33,1.27-.98,1.36-.75.09-2.45.14-5.1.14s-4.35-.09-5.35-.28c-.77-.14-1.15-.64-1.15-1.5,0-2,.03-5.02.1-9.05.07-4.03.1-7.05.1-9.05,0-2.73-1.39-4.09-4.16-4.09-.93,0-2.03.37-3.29,1.12-1.38.82-2.06,1.67-2.06,2.55v8.63c0,1.12.02,2.8.07,5.05.05,2.25.07,3.93.07,5.05,0,.86-.36,1.34-1.08,1.43-.72.09-2.75.14-6.08.14-1.91,0-3.29-.09-4.12-.28s-1.26-.59-1.26-1.22c0-1.84.01-4.61.03-8.3.02-3.69.03-6.46.03-8.3,0-7.62-.08-13.92-.24-18.91-.07-1.75-.13-3.5-.17-5.24-.12-2.03-.33-3.76-.63-5.21-.07-.3-.1-.52-.1-.66,0-.35.17-.58.52-.7.72-.21,1.78-.34,3.18-.38,1.86-.07,2.95-.13,3.25-.17l6.33-.73c.37,0,.56.24.56.73,0,.75-.05,1.76-.14,3.04-.09,1.49-.14,2.51-.14,3.04-.14,5.27-.21,9.43-.21,12.48,0,.47.12.7.35.7.05,0,.64-.41,1.78-1.22,1.35-.96,2.64-1.71,3.88-2.27,1.84-.82,3.62-1.22,5.35-1.22,2.98,0,5.48.78,7.48,2.34,2.17,1.68,3.25,3.97,3.25,6.89Z"/><path class="cls-2" d="m277.77,316.47c0,5.31-1.63,9.62-4.88,12.93-3.25,3.31-7.52,4.96-12.81,4.96s-9.34-1.63-12.65-4.89c-3.31-3.26-4.96-7.46-4.96-12.58,0-5.41,1.58-9.79,4.75-13.16,3.17-3.37,7.46-5.05,12.86-5.05s9.53,1.65,12.79,4.95c3.26,3.3,4.89,7.58,4.89,12.85Zm-11.46,0c0-1.84-.57-3.47-1.71-4.88-1.14-1.41-2.62-2.11-4.44-2.11s-3.36.72-4.54,2.17c-1.12,1.35-1.68,2.96-1.68,4.82s.56,3.51,1.68,4.86c1.19,1.44,2.7,2.17,4.54,2.17s3.32-.72,4.51-2.17c1.1-1.35,1.64-2.97,1.64-4.86Z"/><path class="cls-2" d="m302.45,305.39c0,.23-.17.55-.52.94-.65-.16-1.31-.24-1.96-.24-1.38,0-2.53.3-3.46.91-1.12.7-1.68,1.69-1.68,2.97,0,.82.59,1.85,1.78,3.11,1.79,1.89,2.9,3.16,3.32,3.81,1.19,1.77,1.78,3.67,1.78,5.7,0,1.19-.23,2.45-.7,3.77-.54,1.47-1.21,2.54-2.03,3.22-1.72,1.49-3.74,2.75-6.05,3.77-2.49,1.07-4.79,1.61-6.89,1.61-.47,0-1.51-1.26-3.13-3.79-1.62-2.53-2.43-4.07-2.43-4.63,0-.21.13-.34.38-.38,1.63-.3,3.27-.61,4.93-.91,2.05-.65,3.08-1.72,3.08-3.22,0-1.02-.59-2.21-1.78-3.56-2.12-2.35-3.23-3.6-3.32-3.74-1.19-1.68-1.78-3.45-1.78-5.31,0-3.5,1.77-6.47,5.31-8.91,3.17-2.17,6.56-3.25,10.17-3.25.37,0,1.29,1.25,2.76,3.76s2.2,3.97,2.2,4.39Z"/><path class="cls-2" d="m330.87,323.43c0,.7-.09,1.76-.26,3.18-.17,1.42-.26,2.46-.26,3.13s-.07,1.09-.21,1.28c-.14.19-.52.45-1.15.8-3.01,1.65-6.34,2.48-10,2.48-6.73,0-10.1-2.57-10.1-7.73,0-1.54.06-3.85.17-6.94.12-3.09.17-5.4.17-6.94,0-1.02-.59-1.54-1.78-1.54h-.45c-.21.02-.36.03-.45.03-.89,0-1.33-.31-1.33-.94,0-.37.03-.94.09-1.71.06-.77.09-1.34.09-1.71,0-.49-.03-1.23-.09-2.24-.06-1-.09-1.75-.09-2.24s.75-.72,2.24-.77c.84-.02,1.29-.26,1.36-.7.14-.89.19-2.28.14-4.19-.09-3.01-.14-4.44-.14-4.3,0-2.7.26-4.05.77-4.05.63,0,1.53.14,2.69.42,1.33.3,2.25.48,2.76.52,1.19.16,2.98.38,5.38.66.58.05.87.24.87.59,0,.93-.08,2.34-.23,4.23-.15,1.89-.23,3.31-.23,4.26,0,1.14.34,1.71,1.01,1.71.82,0,2.05-.04,3.71-.1,1.65-.07,2.9-.1,3.74-.1.51,0,.77.17.77.52,0,.54-.06,1.34-.17,2.41-.12,1.07-.17,1.88-.17,2.41s.01,1.38.03,2.45c.02,1.07.03,1.89.03,2.45,0,.49-.34.73-1.01.73-.47,0-1.25-.02-2.34-.05-1.1-.03-1.88-.05-2.34-.05h-2.62c-.35,0-.52.51-.52,1.54v2.48c.02,1.12.03,1.95.03,2.48,0,1.96.22,3.31.66,4.05.63,1,1.86,1.5,3.71,1.5.58,0,1.42-.13,2.5-.4,1.08-.27,1.85-.4,2.29-.4.49,0,.73.26.73.77Z"/></g><path class="cls-3" d="m152.76,103.85s-2.23,12.12-20.2,11.06"/><path class="cls-6" d="m115.41,116.29s3.57-6.05,16.43-7.51c0,0,13.46-1.89,20.92-4.92,0,0-12.23,10.45-28.87,13.28"/><path class="cls-2" d="m115.41,116.29s6.27-5.19,8.86,1.73c0,0,4.11,10.81-29.84,16.22l-2.05,3.68s-6.38.32-6.59-4.22c0,0,10.38-6.59,12.97-11.68,0,0-10.05-7.24-17.62-8.54,0,0-6.59-9.84-12.22-14.81,0,0,28.22,0,39.68,18.81,0,0,5.95.54,6.81-1.19Z"/><ellipse class="cls-3" cx="118.55" cy="119.24" rx="1.51" ry="2.11"/><path class="cls-5" d="m122.55,120.25s.5-5.12,10.02,0c0,0-5.32,2.88-10.02,0Z"/><path class="cls-3" d="m85.79,133.69h0c.43,4.29,6.59,4.22,6.59,4.22,0,0-4,2.52-5.3,5.12,0,0-4.76-1.51-6.05-7.71,0,0,3.85-.38,4.76-1.62Z"/><path class="cls-3" d="m68.93,98.67s-9.37-.97-13.48-3.21c0,0,6.7,11.53,25.69,18.02,0,0-7.96-12.11-12.22-14.81Z"/></g></g></svg>