<?xml version="1.0" encoding="UTF-8"?><svg id="Calque_2" xmlns="http://www.w3.org/2000/svg" viewBox="0 0 176.71 92.71"><defs><style>.cls-1{fill:#226bbf;}</style></defs><g id="Calque_1-2"><path class="cls-1" d="m31.29,44.05s4.47-22.35-19.76-9.65c0,0-9.88,7.06-11.53,21.88,0,0,.47,1.41,4.47,1.88s7.76.71,11.06,2.12,16.47,4.71,17.18-2.35c0,0,.47-5.76.24-7.12s3.76,2.71,5.59,2.24c0,0-2.18-5.18-1.88-11.59,0,0-3.88,4.29-5.35,2.59Z"/><path class="cls-1" d="m70.14,9.88s3.26-16.3-14.41-7.03c0,0-7.2,5.15-8.41,15.95,0,0,.34,1.03,3.26,1.37s5.66.51,8.06,1.54,12.01,3.43,12.52-1.72c0,0,.34-4.2.17-5.19s2.74,1.97,4.07,1.63c0,0-1.59-3.77-1.37-8.45,0,0-2.83,3.13-3.9,1.89Z"/><path class="cls-1" d="m84.32,75.26s4.28-21.38-18.91-9.23c0,0-9.45,6.75-11.03,20.93,0,0,.45,1.35,4.28,1.8s7.43.68,10.58,2.03,15.76,4.5,16.43-2.25c0,0,.45-5.52.23-6.81s3.6,2.59,5.35,2.14c0,0-2.08-4.95-1.8-11.09,0,0-3.71,4.11-5.12,2.48Z"/><path class="cls-1" d="m107.35,55.67s2.07-10.36-9.16-4.47c0,0-4.58,3.27-5.34,10.14,0,0,.22.65,2.07.87s3.6.33,5.12.98,7.63,2.18,7.96-1.09c0,0,.22-2.67.11-3.3s1.74,1.25,2.59,1.04c0,0-1.01-2.4-.87-5.37,0,0-1.8,1.99-2.48,1.2Z"/><path class="cls-1" d="m170.9,33.6s3.59-17.93-15.86-7.74c0,0-7.93,5.66-9.25,17.56,0,0,.38,1.13,3.59,1.51s6.23.57,8.87,1.7,13.21,3.78,13.78-1.89c0,0,.38-4.62.19-5.71s3.02,2.17,4.48,1.79c0,0-1.75-4.15-1.51-9.3,0,0-3.11,3.45-4.29,2.08Z"/></g></svg>