<?xml version="1.0" encoding="UTF-8"?><svg id="Calque_2" xmlns="http://www.w3.org/2000/svg" viewBox="0 0 135.53 44.01"><defs><style>.cls-1{fill:#226bbf;}</style></defs><g id="Calque_1-2"><path class="cls-1" d="m55.24,27.82c-2.35,3.32-20.88,5.41-20.88,5.41-.71,2.82-5.94,2.65-5.94,2.65,3.06-4.59.06-3.88.06-3.88-4.24.47-7.06-.24-15.29-2.12s-11.53,2.82-11.53,2.82l-1.65-14.82s2.76,4.47,11.88,5.82c0,0,7.41-.06,8-1.53s-.06-3.65-.06-3.65c0,0,5,4.06,9.53,2.29,0,0,2.53-.59,1.18-5.24,0,0,6-.94,6.76,4.94,0,0,22.24,1.24,17.94,7.29Z"/><path class="cls-1" d="m114.54,9.34c-1.79,2.52-15.88,4.11-15.88,4.11-.54,2.15-4.52,2.01-4.52,2.01,2.33-3.49.04-2.95.04-2.95-3.22.36-5.37-.18-11.63-1.61s-8.77,2.15-8.77,2.15l-1.25-11.27s2.1,3.4,9.03,4.43c0,0,5.63-.04,6.08-1.16s-.04-2.77-.04-2.77c0,0,3.8,3.09,7.24,1.74,0,0,1.92-.45.89-3.98,0,0,4.56-.72,5.14,3.76,0,0,16.9.94,13.64,5.55Z"/><path class="cls-1" d="m135.21,39.37c-1.35,1.91-12.02,3.12-12.02,3.12-.41,1.63-3.42,1.52-3.42,1.52,1.76-2.64.03-2.24.03-2.24-2.44.27-4.06-.14-8.81-1.22s-6.64,1.63-6.64,1.63l-.95-8.53s1.59,2.57,6.84,3.35c0,0,4.27-.03,4.61-.88s-.03-2.1-.03-2.1c0,0,2.88,2.34,5.49,1.32,0,0,1.46-.34.68-3.01,0,0,3.45-.54,3.89,2.84,0,0,12.8.71,10.33,4.2Z"/></g></svg>