<?xml version="1.0" encoding="UTF-8"?><svg id="Calque_2" xmlns="http://www.w3.org/2000/svg" viewBox="0 0 567.09 35.3"><defs><style>.cls-1{fill:#4c96ed;}.cls-2{fill:#59a2ea;}</style></defs><g id="Dockhost_assets"><g id="Calque_12"><path class="cls-2" d="m25.76,12.88s50.82-19.41,92.47,1.94l-34.41,15.88L25.76,12.88Z"/><path class="cls-2" d="m140.47,19.06s24.88-25.06,75.53-7.59l-23.82,22.41-42.53-3.88-9.18-10.94Z"/><path class="cls-2" d="m254.12,14.83s44.47-30.35,82.24,3.88l-10.94,15.53-62.47-.71-8.82-18.71Z"/><path class="cls-2" d="m364.24,18.36s37.06-27.88,73.06-4.59l-12.71,18-48.71,1.06-11.65-14.47Z"/><path class="cls-2" d="m472.24,11.53s45.88-25.41,84-.24l-4.24,20-81.88-1.65,2.12-18.12Z"/><path class="cls-1" d="m567.09,35.3l-.06-35.21c-15.33,3-29.12,17.1-29.38,17.32-25.62,22.29-51.47-1.53-51.47-1.53-23.38-27.53-58.59-12-61.59,2.29s-34.94,21.18-55.24-.35-39.35-.18-39.35-.18c0,0-27,35.47-61.76,0s-63.29-6.35-67.76.94-24.94,25.65-51.29-.94-51.06.24-51.06.24c0,0-21.18,16.71-43.76-.24C54.35,17.65,38.59-1.47,0,.09l.06,35.21h567.03Z"/></g></g></svg>