<?xml version="1.0" encoding="UTF-8"?><svg id="Calque_2" xmlns="http://www.w3.org/2000/svg" viewBox="0 0 684.71 597.44"><defs><style>.cls-1{fill:#d8d8d8;}.cls-2{stroke-width:2px;}.cls-2,.cls-3{fill:none;stroke:#7dbbef;stroke-miterlimit:10;}.cls-4{fill:#21649b;}.cls-5{fill:#39c939;}.cls-6{fill:#60ea60;}.cls-7{fill:#1974ce;}.cls-8{fill:#c3d3db;}.cls-9{fill:#afb8bc;}.cls-10{fill:#b1b8bc;}</style></defs><g id="Dockhost"><g id="Calque_4"><path class="cls-6" d="m113.35,597.13c0-5.68.21-11.4,1-17.13,1.36-11.18,6.13-21.55,7.54-32.52,1.37-10.58,1.31-21.76-.19-32.32-1.55-10.98-6.44-21.25-7.97-32.46-1.62-11.53-1.61-22.91-.1-34.45,1.44-11.2,6.25-21.54,7.71-32.5,2.04-16.02,1.3-32.38-3.87-47.83-3.61-10.73-5.32-22.72-5.24-34.09-.14-11.37,1.58-23.38,5.17-34.11,3.46-10.49,4.88-20.74,4.84-31.71-.05-5.42-.29-10.81-1.06-16.07-1.47-10.95-6.32-21.28-7.74-32.49-1.52-11.57-1.49-22.95.09-34.51,1.49-11.21,6.35-21.5,7.86-32.47,2.2-16.03,1.28-32.39-3.46-47.97-3.24-10.79-4.3-22.76-2.7-33.95,0,0,2.26,0,2.26,0,.82,5.53,1.57,10.98,2.72,16.26,1.67,8.07,4.92,15.72,7.07,23.79,3.5,14.09,3.6,28.66,1.83,43.01-1.43,11.2-6.24,21.54-7.7,32.5-1.4,10.5-1.37,21.67.08,32.16,1.52,10.96,6.34,21.27,7.81,32.48.85,5.78,1.11,11.55,1.17,17.27-.05,5.72-.3,11.49-1.14,17.27-1.45,11.21-6.28,21.53-7.76,32.49-1.42,10.49-1.46,21.64-.06,32.14,1.46,10.96,6.27,21.29,7.71,32.5,1.53,11.57,1.5,22.94-.07,34.5-1.49,11.21-6.34,21.51-7.85,32.48-.79,5.27-1.04,10.67-1.11,16.1-.06,10.98,1.27,21.33,4.68,31.84,3.52,10.73,5.13,22.65,4.97,33.98-.08,5.7-.37,11.43-1.24,17.16-1.52,11.2-6.42,21.46-8.02,32.45-.83,5.31-1.13,10.75-1.23,16.21,0,0-6,0-6,0h0Z"/><path class="cls-6" d="m373.51,596.29c.02-4.9.26-9.84,1.09-14.78,1.43-9.57,6.16-18.19,7.64-27.53,1.41-8.91,1.38-18.49-.09-27.38-1.54-9.35-6.32-17.9-7.84-27.49-1.61-9.92-1.59-19.73-.02-29.66,1.49-9.58,6.25-18.17,7.76-27.51,1.43-8.88,1.43-18.45,0-27.33-1.51-9.34-6.27-17.92-7.75-27.51-.86-4.96-1.12-9.92-1.17-14.83.05-4.91.31-9.88,1.19-14.83,1.52-9.59,6.31-18.15,7.84-27.49,1.46-8.9,1.49-18.47.09-27.38-1.47-9.34-6.21-17.95-7.67-27.53-1.54-9.89-1.51-19.68.09-29.55,1.52-9.58,6.31-18.13,7.84-27.49,1.77-11.23,1.61-23.18-1.4-34.18-1.6-5.71-3.92-11.38-4.93-17.31-1.14-6.01-1.13-12.27-.49-18.26,0,0,1.65,0,1.65,0,.61,4.73,1.24,9.4,2.3,13.9,2.1,9.32,7,17.73,8.54,27.37,1.6,9.84,1.63,19.63.09,29.49-1.46,9.56-6.19,18.18-7.66,27.52-1.41,8.94-1.38,18.52.09,27.45,1.54,9.35,6.32,17.91,7.84,27.49.87,4.94,1.15,9.89,1.22,14.8-.03,4.91-.28,9.86-1.12,14.81-1.46,9.58-6.19,18.19-7.67,27.53-2.07,13.58-1.34,27.6,3.74,40.53,3.56,9.03,5.31,19.39,5.2,29.15.11,9.76-1.64,20.11-5.2,29.15-3.42,8.81-4.85,17.48-4.8,26.86-.04,9.37,1.35,18.07,4.74,26.88,3.53,9.03,5.25,19.38,5.11,29.12-.06,4.91-.34,9.86-1.21,14.8-1.51,9.59-6.3,18.14-7.87,27.49-.8,4.47-1.08,9.08-1.16,13.72,0,0-6,0-6,0h0Z"/><path class="cls-6" d="m651.98,597.35c-.03-5.68.14-11.41.9-17.14,1.29-11.18,6.02-21.58,7.37-32.55,1.3-10.55,1.2-21.71-.31-32.22-1.58-10.97-6.51-21.22-8.04-32.45-1.61-11.6-1.67-22.98-.17-34.6,1.41-11.21,6.17-21.57,7.63-32.51,1.39-10.43,1.37-21.57-.08-31.99-1.51-10.94-6.37-21.24-7.85-32.48-.86-5.82-1.1-11.62-1.15-17.36.06-5.74.32-11.54,1.18-17.35,1.47-11.23,6.31-21.54,7.81-32.48,1.43-10.42,1.42-21.56.06-31.98-1.44-10.94-6.23-21.29-7.65-32.51-1.51-11.63-1.46-23.01.14-34.62,1.52-11.22,6.34-21.51,7.96-32.46,1.55-10.51,1.82-21.64.8-32.24-.74-8.1-3.32-16.16-4.87-24.28-1.59-8.33-1.57-17-.71-25.37.66,5.57,1.4,11.09,2.59,16.45,2.35,11.01,7.7,20.95,9.61,32.22,1.96,11.46,2.23,22.87.8,34.43-1.3,11.07-6.19,21.63-7.6,32.51-1.38,10.46-1.33,21.61.13,32.05,1.53,10.95,6.4,21.23,7.91,32.46.88,5.81,1.16,11.6,1.21,17.34-.05,5.74-.3,11.53-1.14,17.35-1.45,11.23-6.27,21.55-7.75,32.49-1.41,10.41-1.39,21.55.02,31.96,1.46,10.94,6.27,21.27,7.71,32.5,2.24,17.18,1.38,35.16-4.17,51.57-3.51,10.47-4.97,20.64-4.98,31.6-.1,10.95,1.25,21.21,4.61,31.72,3.5,10.75,5.1,22.76,4.9,34.11-.1,5.71-.43,11.46-1.33,17.2-1.59,11.21-6.52,21.44-8.19,32.43-.86,5.3-1.19,10.73-1.32,16.2,0,0-6,0-6,0h0Z"/><path class="cls-6" d="m219.22,597.18c.08-6.36.21-13.23,1.12-19.55,1.31-12.92,6.4-25.53,11.07-37.36,3.97-10.18,6.25-20.83,6.87-31.69.12-1.19.23-3.48.23-4.67.18-6.11.12-12.62-.47-18.72-.46-6.21-1.55-12.29-3.13-18.24-3.17-12.3-9.49-23.64-12.67-36.19-2.56-9.57-3.64-19.51-3.78-29.36-.18-4.04.07-8.21.13-12.27,0,0,.2-2.46.2-2.46.34-4.82.92-10.03,1.89-14.73,3.41-19,14.47-35.54,16.38-54.75.9-6.06,1.04-12.48,1.17-18.59-.13-6.1-.27-12.54-1.18-18.59-1.42-12.63-6.16-23.84-10.84-35.73-4.84-12.17-7.37-25.54-7.71-38.67-.46-13.13.32-26.41,3.75-39.18,3.19-12.55,9.54-23.87,12.7-36.18,2.4-8.91,3.44-18.33,3.58-27.59.2-7.71-.14-15.67-1.27-23.3-1.81-15.86-9.71-29.91-13.5-45.42-1.39-5.36-2.13-11.44-2.53-16.96-.27-5.66-.13-11.34.3-16.97,0,0,1.41,0,1.41,0,.8,7.85,1.73,15.78,3.48,23.46,1.13,4.55,2.4,9.11,4.05,13.43,2.19,6,4.82,11.68,7.23,17.63,4.33,10.55,6.96,22.13,7.67,33.57.13,1.26.27,3.64.28,4.9.24,6.41.22,13.2-.34,19.61-.78,13.02-4.59,26.19-9.59,38.09-5.56,13.06-8.91,26.42-9.41,40.56-.21,5.39-.16,11.02.04,16.38.12,1.37.46,5.51.58,6.96.24,2.19.66,4.68.96,6.88,2.1,13.4,8.18,25.16,12.58,38.08,2.06,6.27,3.68,12.8,4.47,19.36.96,6.39,1.15,13.22,1.29,19.66-.1,13.16-1.47,26.52-5.77,39.02-4.66,13.64-11.18,26.11-12.93,40.38-1.17,7.6-1.54,15.57-1.37,23.25.1,9.23,1.1,18.68,3.45,27.57,3.09,12.3,9.43,23.67,12.53,36.22,3.71,14.37,4.21,29.33,3.19,44.05-.33,4.41-1.01,10.27-1.97,14.67-2.27,12.79-8.4,24.66-12.49,36.66-2.47,7.35-4.16,14.96-4.86,22.69,0,0-.42,4.67-.42,4.67-.19,3.12-.23,6.27-.36,9.4,0,0-6,0-6,0h0Z"/><path class="cls-6" d="m445.33,597.18c-.08-11.24,1.2-22.69,5.36-33.2,3-7.83,6.85-14.68,9.55-22.38,1.01-2.99,1.86-6.31,2.52-9.33.49-2.92,1.06-6.65,1.24-9.65,0,0,.18-1.95.18-1.95.04-3.3.26-6.56.06-9.84-.05-3.52-.44-7.29-.83-10.73-.48-2.68-1.01-5.93-1.76-8.5,0,0-.48-1.86-.48-1.86,0,0-.61-1.83-.61-1.83-3.52-10.88-10.15-20.77-13.35-32.1-.51-2.07-1.13-4.24-1.53-6.3,0,0-.74-4.24-.74-4.24l-.18-1.06c-.22-2.45-.57-5-.72-7.44-.25-4.88-.25-9.97-.04-14.82.11-1.22.47-5.08.59-6.39.27-2.01.71-4.35,1.03-6.38.71-3.25,1.79-7.26,2.9-10.44,4.66-12.61,12.16-23.93,13.86-37.28.9-5.02,1.04-10.39,1.16-15.47-.1-10.26-1.36-20.61-5.29-30.17-2.83-7.21-7.14-14.93-9.86-22.55-1.1-3.14-2.21-7.21-2.93-10.45-.33-2.01-.78-4.37-1.06-6.39,0,0-.41-4.27-.41-4.27l-.2-2.13c-.23-4.85-.25-9.99-.01-14.85.1-2.1.41-4.3.59-6.39,0,0,.11-1.07.11-1.07l.18-1.06c.63-4.03,1.6-8.77,2.91-12.65,3.62-11.87,10.78-21.94,13.64-33.74.77-2.74,1.24-5.7,1.71-8.45.38-3.53.75-7.15.78-10.68.18-3.26-.04-6.53-.1-9.8,0,0-.18-1.93-.18-1.93-.36-4.96-1.28-10.35-2.67-15.15-.94-3.18-2.67-7.81-4.1-10.88-4.58-9.79-9.87-20.58-11.19-31.67-.67-5.68.01-11.48,2.87-16.92,3.56,6.21,4.73,12.6,6.13,19.35,1.98,9.22,6.07,16.96,10.14,25.64.97,2.09,2.43,5.62,3.27,7.86,1.17,3.31,2.19,7.02,2.97,10.38.6,3.21,1.28,7.31,1.52,10.61,0,0,.21,2.13.21,2.13,0,0,.08,2.12.08,2.12.36,6.65.1,13.53-.65,20.15,0,0-.17,1.06-.17,1.06l-.71,4.25c-.35,1.97-1.01,4.34-1.48,6.33,0,0-.66,2.07-.66,2.07-3.56,11.86-10.63,22.01-13.43,33.8-.69,2.46-1.25,5.89-1.66,8.45-.34,3.31-.72,7.29-.72,10.66-.17,3.22.08,6.54.15,9.77,0,0,.19,1.93.19,1.93.19,2.36.55,5.37,1.01,7.64,0,0,.32,1.89.32,1.89l.46,1.85c1.1,4.85,3.03,9.97,5.1,14.49,4.66,9.78,9.97,20.63,11.42,31.75.98,5.52,1.17,11.44,1.29,17.02-.09,11.41-1.58,23.06-5.97,33.67-3.6,9.07-8.3,16.74-11.01,25.88-1.1,3.64-1.85,7.47-2.42,11.23,0,0-.39,3.86-.39,3.86,0,0-.2,1.93-.2,1.93-.23,4.48-.29,9.22-.1,13.71.12,2.24.41,4.55.59,6.78.35,2.18.49,2.94.79,4.75.32,1.88.9,3.74,1.3,5.6,3.07,11.01,9.52,20.77,12.88,31.99,1.3,3.98,2.17,8.45,2.78,12.58,0,0,.17,1.06.17,1.06l.1,1.06.19,2.12c.11,1.41.29,2.83.34,4.23.2,4.71.13,10.03-.14,14.76,0,0-.22,2.11-.22,2.11l-.44,4.22c-.3,2.13-.76,4.2-1.12,6.31-.82,3.49-1.82,6.95-3.01,10.28-2.82,7.58-7.15,15.16-10.11,22.41-2.5,6.02-4.19,12.34-4.95,18.82-.47,3.19-.72,8.46-.85,11.84,0,0-6,0-6,0h0Z"/><path class="cls-5" d="m15.22,597.29c-.09-13.18.82-26.71,4.16-39.6,2.94-11.52,7.74-22.43,10.66-33.86,5.09-21.15,5.2-43.86,1.74-65.28-2.45-14.95-9.28-29.04-13.32-43.78-3.49-12.95-4.66-26.56-4.75-39.84.09-13.27,1.2-26.9,4.67-39.86,4-14.74,10.79-28.86,13.19-43.8,3.24-20.24,3.22-41.73-1.19-61.79-2.56-11.52-7.44-22.23-10.41-33.69-3.79-14-4.39-28.95-2.81-43.22,0,0,2.12,0,2.12,0,1.65,12.93,3.31,25.43,7.11,37.73,1.7,5.51,3.75,11.03,5.77,16.44,7.19,17.8,10.57,37.77,10.44,57-.05,13.26-1.12,26.89-4.55,39.86-3.33,12.62-8.91,24.45-11.78,37.1-4.97,22.41-4.85,49.5.72,71.79,3,11.4,7.88,22.28,10.88,33.8,3.39,12.95,4.43,26.56,4.45,39.81-.14,13.25-1.38,26.79-4.94,39.68-3.45,12.6-9.14,24.39-12.13,37.04-2.79,11.25-3.74,22.79-4.02,34.46,0,0-6,0-6,0h0Z"/><path class="cls-5" d="m157.8,596.12c-.1-10.6.6-21.42,3.38-31.91,2.5-10.25,7.34-19.87,10.5-29.71,6.16-19,6.27-40.39,2.65-59.86-1.96-10.15-6.12-19.19-10.01-28.84-3-7.44-5.38-15.5-6.57-23.51-.65-3.76-1-8.33-1.31-12.12-.08-3.8-.34-8.32-.18-12.09.11-10.82,1.48-21.78,4.6-32.17,3.08-10.1,7.8-19.49,10.87-29.36,2.15-7.14,3.45-14.59,3.95-22.04.4-4.95.46-10.18.3-15.17-.13-7.41-1-15.14-2.66-22.35-2.83-12.61-9.32-24.13-12.8-36.72-.93-3.1-1.69-6.82-2.33-9.98-.31-2.09-.6-4.15-.87-6.06-1.93-18.72-1.26-38.19,4.93-56.12,4.74-13.59,11.42-25.92,14.39-39.94,1.62-6.3,2.54-12.7,3.9-19.1,0,0,.47,0,.47,0,1.39,7.9,1.72,15.95.9,23.95-1.08,10.71-4.92,20.88-8.96,30.68-8.61,20.82-9.55,44.85-5.47,66.8,1.94,10.14,6.09,19.16,9.95,28.82,4.01,9.97,6.65,20.88,7.44,31.66.4,3.59.47,8.5.56,12.11.05,12.18-1.13,24.51-4.7,36.21-4.29,13.69-11.27,26.09-13.58,40.2-1.45,8.65-1.96,17.59-1.67,26.36,0,0,.09,3.8.09,3.8l.31,3.76c.13,2.36.49,5.15.86,7.47,1.61,12.82,7,24.23,11.57,36.35,1.37,3.74,2.55,7.85,3.55,11.7,0,0,.83,4,.83,4l.41,2c1.21,7.22,1.74,14.84,1.74,22.15-.02,9.37-.65,18.89-2.7,28.09-1.84,9.13-5.62,18.08-9.2,26.48-6.26,14.12-9.08,28.93-9.17,44.45,0,0-6,0-6,0h0Z"/><path class="cls-5" d="m400.63,596.12c.08-6.21.31-12.49,1.6-18.72,1.23-6.21,3.41-12.29,6.06-17.91,2.64-5.63,5.49-10.83,7.45-16.25,4.07-10.87,4.64-22.77,3.86-34.29-.78-12.01-4.99-22.26-10.69-32.9-3.16-6.13-5.97-13.02-7.49-20.02-.77-3.69-1.33-8.05-1.67-11.83-2.95-49.4,21.58-47.44,19.36-92.06-.38-11.9-3.75-22.33-9.41-32.88-2.74-5.39-5.53-11.25-7.33-17.47-1.9-6.21-2.62-12.63-2.97-18.93-.6-12.68.77-25.75,5.81-37.5,2.45-5.91,5.49-11.25,7.87-16.52,2.76-5.9,4.43-12.01,5.44-18.37.19-2.01.5-4.41.63-6.44.06-2.19.29-6.46.13-8.71,0,0-.14-4.36-.14-4.36l-.43-4.29c-.3-2.82-.81-5.68-1.5-8.42-2.65-11.72-9.88-21.53-13.67-33.24-3.96-12.18-4.53-25-3.25-37.64.66-6.28,2.02-12.64,4.34-18.61,2.26-6,5.33-11.44,7.87-16.73,5.43-10.9,7.55-21.76,11.13-33.54,3.72,12.27,1.45,25.54-4.29,36.8-2.66,5.64-5.52,10.82-7.48,16.2-2.03,5.36-3.18,10.96-3.75,16.72-1.07,11.37-.49,23.37,3.16,34.23,3.83,11.3,11.37,21.68,14.12,33.78.8,3.05,1.4,6.33,1.76,9.44,0,0,.49,4.75.49,4.75l.17,4.73c.17,2.59-.05,6.8-.12,9.45-.13,2.23-.47,4.86-.68,7.12-1.07,7.11-3.04,14.25-6.05,20.72-2.6,5.78-5.55,11.01-7.72,16.31-3.95,9.28-5.26,19.35-5.2,29.38.16,7.11.76,14.52,2.8,21.24,3.26,11.51,10.71,21.55,14,33.48,2.33,7.72,2.95,15.74,3.12,23.65.06,11.13-1.52,22.47-5.94,32.76-4.88,11.27-11.23,20.77-12.99,32.79-.54,2.65-.8,5.84-1.04,8.56,0,0-.15,4.36-.15,4.36-.02.73-.07,1.45-.06,2.18.07,2.56.13,4.27.19,6.54.35,3.98.88,8.86,1.93,12.74,2.64,11.72,9.82,21.58,13.59,33.28,5.45,17.14,5.14,39.26-1.22,56.06-4.49,11.47-11.4,21.06-13.82,33-1.31,5.64-1.64,11.52-1.85,17.4,0,0-6,0-6,0h0Z"/><path class="cls-5" d="m607.8,597.18c-.22-16.11.79-32.4,4.84-48.06,1.92-7.88,4.51-15.47,6.7-22.97,3.38-11.21,5.45-22.53,6.37-34.14.51-7.66.79-15.67.56-23.32-.2-11.55-1.22-23.3-3.6-34.56-3.11-15.45-9.71-30.08-12.78-45.79-2.48-11.95-3.5-24.17-3.61-36.32-.16-10.01.21-20.34,1.44-30.28,1.73-18,8.7-35.24,13.5-52.32.89-3.06,1.63-6.74,2.34-9.85.61-3.57.73-4.2,1.23-7.12.87-5.74,1.06-11.63,2.25-17.33.78-3.87,1.65-7.77,3.66-11.72,0,0,.24,0,.24,0,3.43,7.6,3.81,16.04,2.79,24.18-.71,8.07-2.26,16.14-4.24,24.01-4.6,17.26-11.15,33.49-12.69,51.24-1.37,11.46-1.5,23.36-1.14,34.89.54,17.6,3.93,34.42,9.6,51.14,5.09,15.14,8.8,31.5,9.55,47.58.88,16.07.5,32.48-2.02,48.39-2.71,18.84-10.99,36.27-14.96,54.64-.71,3.08-1.08,5.74-1.62,8.56-.4,2.86-.76,5.81-1.15,8.66-.27,3.2-.5,5.86-.74,8.74-.23,3.9-.32,7.82-.5,11.73,0,0-6,0-6,0h0Z"/><ellipse class="cls-7" cx="294.22" cy="392.62" rx="28.47" ry="13.89"/><polyline class="cls-7" points="310.69 390.05 340.19 375.29 340.53 416.12 308.28 398.97"/><path class="cls-7" d="m283.98,382.24c1.18-.24,20.94-9.18,20.94-9.18l5.88,14.35"/><polyline class="cls-7" points="272.92 401.06 310.8 414 299.51 403.41"/><circle class="cls-2" cx="269.86" cy="371.06" r="4"/><circle class="cls-2" cx="277.57" cy="359.47" r="4.18"/><circle class="cls-2" cx="268.07" cy="342.91" r="3.38"/><circle class="cls-2" cx="274.54" cy="329.15" r="3.74"/><circle class="cls-2" cx="268.6" cy="320.38" r="3.32"/><circle class="cls-2" cx="275.66" cy="294.62" r="3.03"/><polyline class="cls-10" points="129.73 597.35 152.58 584.09 203.88 587.62 230.23 597.26"/><path class="cls-8" d="m148.66,597.31l-24.38-14.13s-44.12,10.06-52.06,14.12"/><path class="cls-1" d="m318.66,597.38s33.18-14.59,43.06-14.59,60,14.47,60,14.47"/><path class="cls-9" d="m583.74,597.44s35.29-10.94,42.35-9.53,29.29,9.53,29.29,9.53"/><ellipse class="cls-7" cx="546.66" cy="527.79" rx="18.32" ry="8.94" transform="translate(-46.55 52.92) rotate(-5.32)"/><polyline class="cls-7" points="536.26 530.42 518.24 541.63 515.59 515.49 537.27 524.56"/><circle class="cls-3" cx="560.09" cy="514.37" r="2.54"/><circle class="cls-3" cx="563.95" cy="505.3" r="2.15"/><circle class="cls-3" cx="558.3" cy="487.62" r="2.37"/><circle class="cls-3" cx="561.7" cy="493.11" r="2.11"/><circle class="cls-3" cx="562.3" cy="481.44" r="1.93"/><path class="cls-6" d="m226.04,570.88s-14.29,8.65-20.65,4.94,12.88-12.18,20.65-4.94Z"/><path class="cls-6" d="m220.61,516.01c-5.03-5.36,15.82-8,21.2,1.15,0,0-16.17,4.21-21.2-1.15"/><path class="cls-6" d="m212.42,453.71c-7.1-1.92,9.25-15.12,18.64-10.17,0,0-11.54,12.08-18.64,10.17"/><path class="cls-6" d="m204.01,372.08c-4.87-5.51,16.06-7.51,21.15,1.8,0,0-16.29,3.72-21.15-1.8"/><path class="cls-6" d="m218.01,273.65c-6.35-3.71,12.88-12.18,20.65-4.94,0,0-14.29,8.65-20.65,4.94"/><path class="cls-6" d="m202.36,183.51c-4.82-5.56,16.12-7.37,21.14,1.99,0,0-16.32,3.57-21.14-1.99"/><path class="cls-6" d="m221.3,104c-6.35-3.71,12.88-12.18,20.65-4.94,0,0-14.29,8.65-20.65,4.94"/><path class="cls-6" d="m203.33,21.02c-4.35-5.93,16.67-6.02,20.9,3.71,0,0-16.56,2.22-20.9-3.71"/><path class="cls-6" d="m250.51,556.93c6.78-2.84-11.18-13.76-19.82-7.6,0,0,13.04,10.44,19.82,7.6"/><path class="cls-6" d="m261.01,476.51c4.43-5.87-16.58-6.26-20.95,3.41,0,0,16.52,2.46,20.95-3.41"/><path class="cls-6" d="m243.68,434.1c6.78-2.84-11.18-13.76-19.82-7.6,0,0,13.04,10.44,19.82,7.6"/><path class="cls-6" d="m257.08,339.2c5.36-5.03-15.28-8.99-21.23-.2,0,0,15.87,5.23,21.23.2"/><path class="cls-6" d="m243.33,192.99c4.16-6.06-16.85-5.51-20.78,4.35,0,0,16.62,1.72,20.78-4.35"/><path class="cls-6" d="m255.01,60.54c6.08-4.13-13.69-11.26-20.94-3.51,0,0,14.86,7.64,20.94,3.51"/><path class="cls-6" d="m97.72,574.29c-4.87-5.51,16.06-7.51,21.15,1.8,0,0-16.29,3.72-21.15-1.8"/><path class="cls-6" d="m102.89,503.51c-7.31-.8,6.82-16.36,16.85-12.91,0,0-9.54,13.71-16.85,12.91"/><path class="cls-6" d="m105.32,405.15c-2.71-6.84,17.65-1.62,19.29,8.86,0,0-16.58-2.02-19.29-8.86"/><path class="cls-6" d="m99.02,335.62c-7.09-1.97,9.37-15.05,18.72-10.02,0,0-11.63,11.99-18.72,10.02"/><path class="cls-6" d="m106.33,257.56c-3.76-6.32,17.17-4.4,20.45,5.7,0,0-16.69.63-20.45-5.7"/><path class="cls-6" d="m100.59,179.21c-6.28-3.83,13.12-11.92,20.74-4.54,0,0-14.46,8.37-20.74,4.54"/><path class="cls-6" d="m101.95,107c-4.87-5.51,16.06-7.51,21.15,1.8,0,0-16.29,3.72-21.15-1.8"/><path class="cls-6" d="m139.21,502.05c6.78-2.84-11.18-13.76-19.82-7.6,0,0,13.04,10.44,19.82,7.6"/><path class="cls-6" d="m141.9,418.66c3.26-6.59-17.46-3.06-19.95,7.26,0,0,16.69-.67,19.95-7.26"/><path class="cls-6" d="m136.85,362.28c6.78-2.84-11.18-13.76-19.82-7.6,0,0,13.04,10.44,19.82,7.6"/><path class="cls-6" d="m146.41,274.5c4.33-5.95-16.69-5.97-20.89,3.78,0,0,16.56,2.17,20.89-3.78"/><path class="cls-6" d="m141.91,160.35c3.28-6.58-17.45-3.13-19.98,7.18,0,0,16.7-.6,19.98-7.18"/><path class="cls-6" d="m379.36,571.76s-14.29,8.65-20.65,4.94,12.88-12.18,20.65-4.94Z"/><path class="cls-6" d="m378.99,505.01s-16.39,3.25-21.09-2.4,16.26-7.05,21.09,2.4Z"/><path class="cls-6" d="m380.28,394.42s-11.03,12.55-18.2,10.92c-7.17-1.62,8.62-15.49,18.2-10.92Z"/><path class="cls-6" d="m384.99,324.14s-16.65-1.4-19.61-8.14c-2.96-6.73,17.58-2.28,19.61,8.14Z"/><path class="cls-6" d="m377.98,260.29s-9.41,13.8-16.73,13.07,6.66-16.43,16.73-13.07Z"/><path class="cls-6" d="m384.57,208.24s-16.64,1.52-20.73-4.6c-4.09-6.11,16.91-5.31,20.73,4.6Z"/><path class="cls-6" d="m400.99,173.41c4.16-6.06-16.85-5.51-20.78,4.35,0,0,16.62,1.72,20.78-4.35"/><path class="cls-6" d="m394.99,370.4c7.01-2.21-9.88-14.72-19.05-9.38,0,0,12.03,11.59,19.05,9.38"/><path class="cls-6" d="m399.35,465.64c7.2-1.51-8.38-15.62-18.03-11.21,0,0,10.83,12.72,18.03,11.21"/><path class="cls-6" d="m401.11,508.41c4.16-6.06-16.85-5.51-20.78,4.35,0,0,16.62,1.72,20.78-4.35"/><path class="cls-6" d="m394.79,264.78c6.49-3.46-12.4-12.67-20.44-5.74,0,0,13.95,9.19,20.44,5.74"/><path class="cls-5" d="m3.64,196.22c-7.25-1.24,7.79-15.92,17.6-11.87,0,0-10.35,13.11-17.6,11.87"/><path class="cls-5" d="m17.81,264.02c-4.65-5.69,16.33-6.9,21.07,2.6,0,0-16.42,3.1-21.07-2.6"/><path class="cls-5" d="m5.04,348.11c-7.25-1.24,7.79-15.92,17.6-11.87,0,0-10.35,13.11-17.6,11.87"/><path class="cls-5" d="m2.18,407.74c-7.35-.2,5.45-16.87,15.74-14.25,0,0-8.38,14.45-15.74,14.25"/><path class="cls-5" d="m16.05,468.16c-4.53-5.79,16.47-6.55,21.01,3.04,0,0-16.48,2.75-21.01-3.04"/><path class="cls-5" d="m2.8,547.94c-2.76-6.82,17.64-1.77,19.36,8.7,0,0-16.6-1.89-19.36-8.7"/><path class="cls-5" d="m45.79,549.64c7.25-1.24-7.79-15.92-17.6-11.87,0,0,10.35,13.11,17.6,11.87"/><path class="cls-5" d="m54.15,448.37c4.72-5.64-16.25-7.08-21.1,2.36,0,0,16.38,3.28,21.1-2.36"/><path class="cls-5" d="m35.15,383.05c7.25-1.24-7.79-15.92-17.6-11.87,0,0,10.35,13.11,17.6,11.87"/><path class="cls-5" d="m52.1,306.11c7.25-1.24-7.79-15.92-17.6-11.87,0,0,10.35,13.11,17.6,11.87"/><path class="cls-5" d="m51.86,208.71c3.67-6.38-17.23-4.15-20.37,5.99,0,0,16.7.39,20.37-5.99"/><path class="cls-5" d="m192.45,543.46c7.25-1.24-7.79-15.92-17.6-11.87,0,0,10.35,13.11,17.6,11.87"/><path class="cls-5" d="m187.78,436.04c1.94-7.09-17.72.32-18.2,10.93,0,0,16.26-3.83,18.2-10.93"/><path class="cls-5" d="m187.15,357.88c7.12,1.85-.54-17.72-11.15-18.07,0,0,4.03,16.21,11.15,18.07"/><path class="cls-5" d="m196.69,256.44c2.75-6.82-17.64-1.72-19.34,8.76,0,0,16.59-1.93,19.34-8.76"/><path class="cls-5" d="m191.51,157.52c7.25-1.24-7.79-15.92-17.6-11.87,0,0,10.35,13.11,17.6,11.87"/><path class="cls-5" d="m138.8,197.43c-5.93-4.35,14.08-10.77,21.05-2.77,0,0-15.11,7.12-21.05,2.77"/><path class="cls-5" d="m157.16,282.11c-7.25-1.24,7.79-15.92,17.6-11.87,0,0-10.35,13.11-17.6,11.87"/><path class="cls-5" d="m157.66,318.76c-2.93-6.75,17.59-2.18,19.56,8.24,0,0-16.64-1.5-19.56-8.24"/><path class="cls-5" d="m140.62,395.67c-6.46-3.52,12.53-12.54,20.5-5.53,0,0-14.04,9.05-20.5,5.53"/><path class="cls-5" d="m163.51,493.87c-7.25-1.24,7.79-15.92,17.6-11.87,0,0-10.35,13.11-17.6,11.87"/><path class="cls-5" d="m400.45,60.59c-4.17-6.06,16.84-5.53,20.79,4.32,0,0-16.62,1.74-20.79-4.32"/><path class="cls-5" d="m385.86,131.75c-7.25-1.24,7.79-15.92,17.6-11.87,0,0-10.35,13.11-17.6,11.87"/><path class="cls-5" d="m402.28,193.05c-5.55-4.83,14.93-9.55,21.21-.99,0,0-15.66,5.82-21.21.99"/><path class="cls-5" d="m394.69,330.46c-7.25-1.24,7.79-15.92,17.6-11.87,0,0-10.35,13.11-17.6,11.87"/><path class="cls-5" d="m385.62,247.93c-1.72-7.15,17.7.88,17.85,11.49,0,0-16.13-4.34-17.85-11.49"/><path class="cls-5" d="m392.53,387.29c-1.95-7.09,17.72.29,18.22,10.89,0,0-16.27-3.8-18.22-10.89"/><path class="cls-5" d="m392.22,480.81c-7.25-1.24,7.79-15.92,17.6-11.87,0,0-10.35,13.11-17.6,11.87"/><path class="cls-5" d="m397.4,539.91c-1.52-7.2,17.67,1.38,17.52,11.99,0,0-16-4.79-17.52-11.99"/><path class="cls-5" d="m434.08,556.51c7.34.4-4.05-17.26-14.52-15.49,0,0,7.18,15.09,14.52,15.49"/><path class="cls-5" d="m434.26,473.96c4.62-5.72-16.37-6.81-21.06,2.71,0,0,16.43,3.01,21.06-2.71"/><path class="cls-5" d="m436.45,393.64c7.25-1.24-7.79-15.92-17.6-11.87,0,0,10.35,13.11,17.6,11.87"/><path class="cls-5" d="m424.59,276.75c1.05-7.28-17.55,2.5-16.72,13.08,0,0,15.67-5.8,16.72-13.08"/><path class="cls-5" d="m440.33,222.81c7.25-1.24-7.79-15.92-17.6-11.87,0,0,10.35,13.11,17.6,11.87"/><path class="cls-5" d="m425.39,137.18c.31-7.35-17.2,4.28-15.3,14.72,0,0,14.99-7.37,15.3-14.72"/><path class="cls-5" d="m428.68,94.69c7.25-1.24-7.79-15.92-17.6-11.87,0,0,10.35,13.11,17.6,11.87"/><polyline class="cls-7" points="553.51 521.29 539.98 513.88 535.27 523.88"/><polyline class="cls-7" points="557.74 533.41 537.74 540.71 541.51 532.24"/><ellipse class="cls-4" cx="70.24" cy="517.75" rx="9.28" ry="4.53" transform="translate(-47.67 8.73) rotate(-5.32)"/><polyline class="cls-4" points="64.98 519.08 55.85 524.75 54.51 511.52 65.49 516.11"/><polyline class="cls-4" points="73.71 514.46 66.86 510.71 64.47 515.77"/><polyline class="cls-4" points="75.85 520.59 65.73 524.29 67.63 520"/><ellipse class="cls-4" cx="354.38" cy="441.51" rx="10.68" ry="5.21" transform="translate(-39.38 34.73) rotate(-5.32)"/><polyline class="cls-4" points="348.32 443.05 337.82 449.58 336.27 434.35 348.9 439.63"/><polyline class="cls-4" points="358.37 437.73 350.48 433.41 347.74 439.24"/><polyline class="cls-4" points="360.83 444.79 349.18 449.04 351.37 444.11"/><path class="cls-6" d="m463.8,541.95s-16.64,1.52-20.73-4.6c-4.09-6.11,16.91-5.31,20.73,4.6Z"/><path class="cls-6" d="m461.13,473.71s-8.43,14.43-15.78,14.21c-7.35-.22,5.5-16.85,15.78-14.21Z"/><path class="cls-6" d="m446.86,414.54s-16.64,1.52-20.73-4.6,16.91-5.31,20.73,4.6Z"/><path class="cls-6" d="m454.43,295.87s-3.56,16.32-10.62,18.38c-7.06,2.06.02-17.73,10.62-18.38Z"/><path class="cls-6" d="m460.98,211.25s-16.64,1.52-20.73-4.6c-4.09-6.11,16.91-5.31,20.73,4.6Z"/><path class="cls-6" d="m452,123.48s-5.63,15.73-12.9,16.87c-7.27,1.14,2.31-17.58,12.9-16.87Z"/><path class="cls-6" d="m487.94,157.59c4.16-6.06-16.85-5.51-20.78,4.35,0,0,16.62,1.72,20.78-4.35"/><path class="cls-6" d="m467.78,269.18c7.28-1.07-7.41-16.1-17.31-12.28,0,0,10.04,13.35,17.31,12.28"/><path class="cls-6" d="m468.08,417.15c7.33-.65-6.48-16.5-16.58-13.26,0,0,9.26,13.91,16.58,13.26"/><path class="cls-6" d="m482.99,478.76c4.16-6.06-16.85-5.51-20.78,4.35,0,0,16.62,1.72,20.78-4.35"/><path class="cls-6" d="m469.83,574.56c7.35-.28-5.64-16.81-15.9-14.07,0,0,8.55,14.35,15.9,14.07"/><path class="cls-6" d="m675.88,579.18c4.16-6.06-16.85-5.51-20.78,4.35,0,0,16.62,1.72,20.78-4.35"/><path class="cls-6" d="m676.86,482.66c5.98-4.28-13.96-10.92-21.02-2.99,0,0,15.04,7.27,21.02,2.99"/><path class="cls-6" d="m684.17,411c4.16-6.06-16.85-5.51-20.78,4.35,0,0,16.62,1.72,20.78-4.35"/><path class="cls-6" d="m672.12,333.82c7.32-.68-6.55-16.47-16.64-13.18,0,0,9.32,13.86,16.64,13.18"/><path class="cls-6" d="m680.99,232.41c4.16-6.06-16.85-5.51-20.78,4.35,0,0,16.62,1.72,20.78-4.35"/><path class="cls-6" d="m678.72,151.73c7.35.1-4.77-17.07-15.15-14.87,0,0,7.8,14.77,15.15,14.87"/><path class="cls-6" d="m658.27,168.54s-16.64,1.52-20.73-4.6c-4.09-6.11,16.91-5.31,20.73,4.6Z"/><path class="cls-6" d="m663.6,254.29s-7.41,14.97-14.76,15.26,4.33-17.19,14.76-15.26Z"/><path class="cls-6" d="m654.74,345.01s-16.64,1.52-20.73-4.6c-4.09-6.11,16.91-5.31,20.73,4.6Z"/><path class="cls-6" d="m655.45,458.66s-16.64,1.52-20.73-4.6c-4.09-6.11,16.91-5.31,20.73,4.6Z"/><path class="cls-6" d="m666.69,529.65s-12.38,11.21-19.33,8.79c-6.94-2.43,10.32-14.41,19.33-8.79Z"/><path class="cls-5" d="m651.2,249.11c4.87-5.51-16.06-7.51-21.15,1.8,0,0,16.29,3.72,21.15-1.8"/><path class="cls-5" d="m632,328.49c7.19-1.53-8.43-15.59-18.07-11.15,0,0,10.87,12.68,18.07,11.15"/><path class="cls-5" d="m636.93,397.57c1.05-7.28-17.55,2.5-16.72,13.08,0,0,15.67-5.8,16.72-13.08"/><path class="cls-5" d="m633.37,562.07c7.35.13-4.69-17.1-15.08-14.94,0,0,7.72,14.81,15.08,14.94"/><path class="cls-5" d="m647.13,478.48c7.3-.91-7.05-16.26-17.03-12.67,0,0,9.74,13.58,17.03,12.67"/><path class="cls-5" d="m605.61,257.69c-1.95-7.09,17.72.29,18.22,10.89,0,0-16.27-3.8-18.22-10.89"/><path class="cls-5" d="m591.06,353.24c-7.01-2.22,9.9-14.71,19.06-9.35,0,0-12.05,11.57-19.06,9.35"/><path class="cls-5" d="m597.71,394.07c-7.35.12,4.72-17.09,15.1-14.92,0,0-7.75,14.8-15.1,14.92"/><path class="cls-5" d="m609.49,478.27c-1.95-7.09,17.72.29,18.22,10.89,0,0-16.27-3.8-18.22-10.89"/><path class="cls-5" d="m596.79,542.86c-1.95-7.09,17.72.29,18.22,10.89,0,0-16.27-3.8-18.22-10.89"/></g></g></svg>