<?xml version="1.0" encoding="UTF-8"?><svg id="Calque_2" xmlns="http://www.w3.org/2000/svg" viewBox="0 0 2050.49 1153.1"><defs><style>.cls-1{fill:#7c523a;}.cls-2{fill:#8c6246;}</style></defs><g id="Dockhost_assets"><g id="Calque_12"><path class="cls-2" d="m6.35,129.02s31.76,153.24,25.41,201.83S0,469.13,0,528.93s14.82,74.75,10.59,142.03-2.12,183.14-2.12,183.14c0,0,25.41,104.65,23.29,153.24s-23.29,145.76-23.29,145.76c0,0,823.76-59.8,872.47-18.69,48.71,41.11,910.59-52.33,910.59-52.33l243.53,48.59s-10.59-313.95,10.59-347.59c21.18-33.64-33.88-396.18-33.88-396.18,0,0-23.29-284.05,4.24-328.9,0,0-609.88-85.96-671.29-48.59-61.41,37.38-686.12,63.54-686.12,63.54l-472.24-3.74L6.35,129.02Z"/><path class="cls-1" d="m64.48,176.42s29.74,138.04,23.79,181.81c-5.95,43.77-29.74,124.57-29.74,178.44s13.88,67.34,9.91,127.94-1.98,164.98-1.98,164.98c0,0,23.79,94.27,21.81,138.04s-21.81,131.31-21.81,131.31c0,0,771.33-53.87,816.93-16.83,45.61,37.04,852.62-47.14,852.62-47.14l228.03,43.77s-9.91-282.82,9.91-313.12-31.73-356.89-31.73-356.89c0,0-21.81-255.88,3.97-296.29,0,0-571.06-77.44-628.56-43.77-57.5,33.67-642.44,57.24-642.44,57.24l-442.17-3.37-168.54,53.87Z"/></g></g></svg>